<svg id="Ebene_1" data-name="Ebene 1" xmlns="http://www.w3.org/2000/svg" xmlns:xlink="http://www.w3.org/1999/xlink" viewBox="0 0 650.93 392.45"><defs><style>.cls-1,.cls-15,.cls-3{fill:none;}.cls-2{opacity:0.8;}.cls-3{stroke:#3f3d56;stroke-miterlimit:10;stroke-width:3px;}.cls-4{fill:#6c63ff;}.cls-5{fill:#3acc6c;}.cls-6{fill:#ff6584;}.cls-7{clip-path:url(#clip-path);}.cls-8{fill:#f5c0a7;}.cls-9{fill:#302e42;}.cls-10{fill:#2a293b;}.cls-11{fill:#3a3846;}.cls-12{fill:#2d2b36;}.cls-13{fill:#31303b;}.cls-14{fill:#008b7d;}.cls-15{stroke:#3b2e1d;stroke-width:0.51px;}.cls-16{fill:#37354c;}.cls-17{fill:#353440;}.cls-18{fill:#3b2e1d;}.cls-19{fill:#211d17;}.cls-20{fill:#2e2820;}.cls-21{fill:#6c6c68;}.cls-22{fill:#16121b;}</style><clipPath id="clip-path" transform="translate(-23.45)"><rect class="cls-1" x="-102.19" y="29.74" width="490.43" height="367.82"/></clipPath></defs><g class="cls-2"><line class="cls-3" x1="206.31" y1="116.83" x2="641.45" y2="116.83"/><path class="cls-3" d="M268.41,116.83s20.81,2.89,10-19.44,29.24-18.1,29.24-18.1" transform="translate(-23.45)"/><path class="cls-3" d="M407,116.83s20.8-2.88,10,19.44,29.23,18.1,29.23,18.1" transform="translate(-23.45)"/><path class="cls-3" d="M606.53,116.83s-20.81-2.88-10,19.44-29.24,18.1-29.24,18.1" transform="translate(-23.45)"/><line class="cls-3" x1="543.82" y1="154.36" x2="429" y2="154.36"/><circle class="cls-4" cx="206.31" cy="116.83" r="12.7"/><circle class="cls-5" cx="284.45" cy="79.11" r="12.7"/><circle class="cls-4" cx="284.45" cy="116.83" r="12.7"/><circle class="cls-4" cx="334.88" cy="116.83" r="12.7"/><circle class="cls-6" cx="423.03" cy="154.18" r="12.7"/><circle class="cls-6" cx="489.64" cy="154.18" r="12.7"/><circle class="cls-4" cx="486.16" cy="116.83" r="12.7"/><circle class="cls-4" cx="638.23" cy="116.83" r="12.7"/><circle class="cls-4" cx="576.02" cy="116.83" r="12.7"/><rect class="cls-4" x="184.97" width="42.63" height="29.38"/><rect class="cls-5" x="263.3" width="42.63" height="29.38"/><rect class="cls-6" x="401.54" width="42.63" height="29.38"/></g><g class="cls-7"><g class="cls-7"><path class="cls-8" d="M99,344.08s-7.27,21.33-6.77,21,24.62-2.32,24.62-2.32l-.66-22" transform="translate(-23.45)"/><path class="cls-9" d="M95.74,342.6c.49.16,9.09,20.82-6.12,30.08,0,0-24-.66-33.22.16s-30.74,5.79-32.56-4.95,3-23.14,7.93-28.27S47,329.38,60.7,331" transform="translate(-23.45)"/><path class="cls-10" d="M37.72,344.91c2.51-4.83,7.67-9.75,13-13.91-8.72,1-15.29,4.83-19,8.62-5,5.13-9.75,17.52-7.93,28.27.64,3.75,3.68,5.59,7.76,6.35-.76-10.15,3-23.39,6.12-29.33" transform="translate(-23.45)"/><path class="cls-9" d="M217.38,347.23s22.74-1.17,30.09-.67c12.06.83,20.16,4.14,24.13,3.64s9.42-4.3,14.38-4.3,13.22,3.8,18,10.09,6.94,15.53,6.12,21.81-1,11.41-10.58,14.05-28.1-4.3-33.39-5.62-33-1.32-36-1.15c0,0-7.27-4.8-6.45-6.12s-5.78-18.68-5.78-19.17" transform="translate(-23.45)"/><path class="cls-11" d="M106.65,348.71s-.34,16,1.65,17.36,16,4.63,25.45,4,32.89-5.78,43.47-7.1" transform="translate(-23.45)"/><path class="cls-8" d="M48.36,220.66s.62,16.36.78,24.47,2.65,45,4.83,50.18,47.22,10.91,47.38,10.28-8.11-65.45-7.95-66.23.31-22.91.31-22.91" transform="translate(-23.45)"/><path class="cls-12" d="M86.15,274.5s-.5,21.32-.74,29.26,30.24,40.16,49.83,38.42,80.82-11.9,81.57-12.14S227,304.75,227,303.26s-13.88-29-13.88-29" transform="translate(-23.45)"/><path class="cls-8" d="M201.85,348.88l24.39-1.4s-2.34,4.11-1.4,6.82,6.45,7.19,6.07,11.68-4.39,6.82-5.14,9.25-2.61,4.11-6.26,2S195.22,366.45,195,366.07" transform="translate(-23.45)"/><path class="cls-13" d="M146.4,331.77s25.53-11.15,35.7-14.87,22.56-4.71,29.25-7.44,11.65-17.11,4.22-20.58c0,0,16.74-.63,29.14,1.6s20.84,6.28,23.31,11.74c4.38,9.63,9.15,14.33,8.42,24.53-.47,6.68-9.06,20.64-18.23,21.38s-50.58,2.24-61.73,2.73-50.08-19.09-50.08-19.09" transform="translate(-23.45)"/><path class="cls-14" d="M106.59,146.66s-3.88-2.69-6.16-1.32-8,6.88-9.45,7.84-3.65.72-5.68,2.75-2.57,3.29-5.39,3.83-5.62.36-6.52,1.43-1.31,2.52-3.47,2.76-5.68.24-7.47,4.24-8.16,16.94-10,23.26-3.84,19.71-4.09,26.15a2.54,2.54,0,0,0-1.73,2.73c.12,2.23.24,3.22,3.22,1.61s9.3-.87,15.25.5a116.05,116.05,0,0,0,42.14,1.86c20.21-2.85,114.05-2.23,114.05-2.23s-3-25.54-3.84-33.85S211,165.29,207,162.07s-9.54-3.35-11.15-5.95-3.23-3.72-6.45-4.59-7.44-1.11-9.42-3-7.56-6.45-10.66-6.7-13,.13-18-.24" transform="translate(-23.45)"/><path class="cls-8" d="M111.69,123.14s-.41,16.85-1.2,18.32-5.28,4.41-5.08,5.61c1.2,7.49,3.12,11.31,6.75,16.08,5.64,7.39,15.4,11.45,23,11.18A25.53,25.53,0,0,0,154.26,165a33.59,33.59,0,0,0,6.87-15.21c.49-4.12.49-7.66-.1-7.85s-10.33-2.1-11.41-5.73-2.72-16.06-2.72-16.06" transform="translate(-23.45)"/><polygon class="cls-15" points="224.85 252.85 224.85 252.85 224.19 252.85 224.85 252.85"/><path class="cls-16" d="M234.08,288.69a4,4,0,0,1-4,4H88.63a4,4,0,0,1-4-4V204.28a4,4,0,0,1,4-4H230.11a4,4,0,0,1,4,4Z" transform="translate(-23.45)"/><path class="cls-17" d="M67.56,280.7c-5,.14-12,.12-17.85,2.48s-7.44,4.71-8.43,8.43-.5,5-4,8.68-5.08,11.4-2.73,18,11.78,17.23,21.94,23.06,43.27,15,54.55,17.6,45.74,6.57,53.92,10.54,37.44,10.41,39.92,9.91-2-10.91.24-16.11,7.94-17.6,5.46-21.08-5.7-1.48-10.66-1.48-6.44-2.24-8.3-3.23c-2.69-1.42-4.27-2.64-10.06-2.74-2.49,0-9.16,2.25-12.63-.23s-34-15.87-43.14-19.09S93.09,304,90.61,300.29s-5-20.09-23-19.59" transform="translate(-23.45)"/><path class="cls-10" d="M310.11,377.8c.82-6.28-1.32-15.53-6.12-21.81s-13.06-10.09-18-10.09a12,12,0,0,0-2.05.2c5.52,4.53,15.87,14,16.59,21.45.63,6.55-1.7,16.38-6.95,24.88a20.63,20.63,0,0,0,6-.58c9.59-2.64,9.75-7.77,10.58-14.05" transform="translate(-23.45)"/><path class="cls-8" d="M101.67,73.1s2.14,26.42,2.13,26.21-1.72-4.3-3.86-3.81-2.56,5.07-1.69,7.64,5.87,12.74,6.4,14.4,6.66,13,7.75,16.09,9.85,15.06,15.21,14.85,19-2.48,20.68-5.87,3.76-12.1,5.68-15.5,4-13.06,4-13.06,2.83-2.06,3.3-3.67,2.29-3.17,2.87-5.16,2.43-5.06,2.08-7.28S165,92.88,163.4,92.7s-3,.17-3.9,3c0,0-.76-6.65-1.13-9.85s-2.39-17.62-4.79-20S132.35,61.78,128,62.42s-26.08,3.87-26.34,10.68" transform="translate(-23.45)"/><path class="cls-18" d="M98.14,71.8c0,.17.89,9,1.21,10,1,3.42-.39,6.85.92,10.11.09-.37.26-.75.31-1.12,0,.58,0,1.17,0,1.76,0-.35.08-.71.1-1.06-.45,3.75,1.5,9.48,3.51,12.75-.12-2.7.86-5.34,1-8-.13.17-.29.35-.41.5,0-1.46.75-2.84,1-4.26-.12,0-.2.17-.33.22.19-.73.45-1.47.66-2.19a6.16,6.16,0,0,0-1.09,1.08,15,15,0,0,0,.75-1.65c-.1.21-.19.43-.3.64.54-2,1.33-4,1.69-6.1-.16.23-.46.5-.62.75.3-1.06.42-2.17.62-3.25a3,3,0,0,0-.25.37c-.13-1.16.5-2.33.64-3.45-.2.32-.44.6-.61.94a13.56,13.56,0,0,0,1.14-3.43c-.13.16-.21.32-.32.47a7.26,7.26,0,0,1,.61-1.37s-.41.53-.56.74a7.39,7.39,0,0,1,6.25-3.22,6.3,6.3,0,0,0-.75-.18c1.85-.08,3.7-.35,5.53-.51a6.09,6.09,0,0,0-.72-.34,17.62,17.62,0,0,1,3.69-.14c-.27-.11-.52-.26-.8-.35,0,0,0,0,0,0,.66.1,6.16.71,6.18,1.25,0-.35.18-.72.13-1.07a2,2,0,0,1,.49.47c.06,0,0-.42.14-.43a5.16,5.16,0,0,0,.31.73,4.72,4.72,0,0,1,1.8-.91c-.08.18-.14.51-.22.69,1-.26,2-.73,3-1-.1.16-.23.33-.33.47a10.1,10.1,0,0,0,2.4-1.18c-.05,0-.38.36-.52.47.21-.07.57-.21.81-.26-.21.18-.4.41-.6.59.89-.13,1.7-.54,2.58-.73a15.63,15.63,0,0,1-1.65,1.26c1.54-1,5.93-1.22,7.67-1a6.65,6.65,0,0,0-.58.33,13.93,13.93,0,0,1,6.07,1c-.24,0-.47.09-.7.12,1.57.66,3.54.76,4.38,2.39-.32-.1-.7-.07-1-.14.27.25.47.64.74.88-.2-.13-.41-.22-.59-.32a19.46,19.46,0,0,0,1.14,1.66c-.18-.06-.29-.15-.47-.21-.16,1,.25,3.81,1.14,4.51-.21-.17-.54-.28-.77-.43a24.76,24.76,0,0,0,1.54,3.78c-.13-.14-.49-.37-.66-.51a26,26,0,0,0,1.92,4,8.33,8.33,0,0,0-.67-.54,5.65,5.65,0,0,0,.55,1.41c-.1-.1-.22-.24-.3-.34.67.78.74,3.33.91,4.33.48,2.75,1.68,5.42,2,8.17a24.56,24.56,0,0,1-1,9.93,2.59,2.59,0,0,0,.83-.06,7.3,7.3,0,0,0,.29-1,5.26,5.26,0,0,0,0,.89,6.17,6.17,0,0,0,1.71-.12,13.82,13.82,0,0,1,0-1.93c0,.5-.11,1-.18,1.5.53-3.82.64-7.31.88-11.12.08.38.3.89.37,1.32A51.87,51.87,0,0,0,161,90.34c-.19-2.54-.41-6.59-.5-9.13,0-2.95-.4-11.59-1.36-14.35s-17.56-5-23.91-6.06-38,6.26-37.1,11" transform="translate(-23.45)"/><path class="cls-19" d="M109.74,52a43.13,43.13,0,0,1,5.68-4.09c6.46-3.85,12.76-5.39,14.7-5.39,3.5,0,7.43,1.63,9.86,2.65s12.08,5.68,14.11,8.6-8.84,3.93-9,3.77-34.33-3.23-34.34-3.36" transform="translate(-23.45)"/><path class="cls-19" d="M159.73,78s.88,8.25,1,7.91,2.12-6.09,2.27-7.71" transform="translate(-23.45)"/><polyline class="cls-19" points="73.63 77.44 75.96 83.81 77.71 81.37 77.31 77.79"/><path class="cls-20" d="M129.68,49.62a126.6,126.6,0,0,1,15.72.93c4.57.7,13.22,2.72,16.9,6s4.82,7.72,4.27,12.51-3.29,10.51-3.72,10.79a13.52,13.52,0,0,1-2.85.54s-4.08-6.25-8.17-9-12.62-4.29-19.63-3.63-15.79,1.71-21,4.2-9.7,5.69-10.24,8.19l-2.65.49s-2.52-4.37-3.72-7.09S91.92,66,92.91,62.21s5.46-8.13,10.67-9.74c7.1-2.2,17.42-2.84,26.1-2.85" transform="translate(-23.45)"/><path class="cls-18" d="M124.53,121h0m36.59,3.9c-.19-1.92-.63-4.11-2.21-5.51.37.33,1.08,1,1.61,1.42a9.74,9.74,0,0,0-1-3.15c.19.28.45.51.65.78A36.15,36.15,0,0,0,159,113.4c.22.37.69.92,1,1.35a12.72,12.72,0,0,0-.72-3.27,9.85,9.85,0,0,0,.58,1.44c-.7-1.52-.16-3.27-1-4.9-.45.53-.37,1-.62,1.59-.52,1.09-1.51,2.14-2.11,3.24.2-.24.44-.44.65-.66a10.8,10.8,0,0,0-.76,1.57c.18-.15.47-.25.64-.38a22,22,0,0,1-.76,2.34l.37-.19c-.26.59-.57,1.18-.84,1.75.17-.15.44-.28.62-.42a15.11,15.11,0,0,1-1,1.87c.23-.17.54-.3.76-.46-.4.48-.76,1-1.14,1.51.19-.15.46-.27.65-.41-.1.68-.53,1.31-1.28.95a4.52,4.52,0,0,1,.86.89,4.23,4.23,0,0,1-2-.44,2.81,2.81,0,0,1,.7,1.18,3.22,3.22,0,0,1-1.28-.67,3.57,3.57,0,0,1,.51,1.23c-.25-.17-.67-.21-.91-.35,0,.45,0,.9,0,1.35-.24-.27-.66-.49-.89-.78-.41,3-1.9,6-1.65,9.1-.18-2.2-.76-5-2.52-6.63.13.11.26.25.38.37-.26-.24-.49-.56-.75-.81.23.1.62.14.91.28-.79-2.12-3.92-3-6-3.6.37,0,.78,0,1.15,0-1.53-.89-3.89-1-5.66-1,.38,0,.76-.16,1.14-.21a8.46,8.46,0,0,0-3.61-.13,14.75,14.75,0,0,1-2.62.9c-1.33.1-1.93-.78-3.1-.89-1.69-.17-2.7.88-4.26,1l.37,0a6,6,0,0,1-1.42.43c.36,0,.76,0,1.09,0a43,43,0,0,0-5.17,1.44,8.84,8.84,0,0,1,.95-.2c-2.09.89-3.88,1.47-5.23,3.33.17-.14.36-.25.53-.37-.2.41-.43.81-.67,1.2a3.25,3.25,0,0,1,.92-.79,39.49,39.49,0,0,0-.41,6c-1-2.23-1.41-5.59-3.52-7.11a2.69,2.69,0,0,0,.67.31,2.37,2.37,0,0,0-.82-.75c.26,0,.56,0,.83.08a19.65,19.65,0,0,1-2.81-2c.23.08.52.08.74.14a26.09,26.09,0,0,0-2.15-1.65,3.08,3.08,0,0,1,.58-.17,9.72,9.72,0,0,0-2.42-1.61c.36.1,1,0,1.32.16-.51-.62-1.16-1.15-1.63-1.78.25.13.72.23,1,.4-.24-1.36-1.47-2.44-1.52-3.88.23.16.63.27.86.43a20.48,20.48,0,0,0-1-2.69c.17.24.41.48.59.73-.77-4.36-2.2-8.34-2.41-12.84.08,1.54-.87,3.52-1,5.14-.15,1.8.37,4.45-.13,6.12.14-.47.4-.94.54-1.41-.43,4.61-.14,9,1.85,13.26a6,6,0,0,0,.27-1.81c0,3.7.81,8.14,3.29,11.13,0-.63.08-1.31.16-1.91.27,1.94.87,3.8,1.21,5.71.1-.86.26-1.71.36-2.58h0l.15,2.08c0-.59.58-1.48.69-2.06.7,4.09.59,8.07,2.34,12-.07-.53,0-1.07-.12-1.6a29.25,29.25,0,0,0,2.53,5.07,11.28,11.28,0,0,0-.26-1.26c.17.44.38.86.57,1.28-.1-.3-.19-.65-.31-1,1.23,3.3,3.53,5,6.65,6.62a5.73,5.73,0,0,0-1.16-1.54c.37.32.88.63,1.23.92-.11-.15-.21-.33-.32-.5,1.38,1.85,4.45,1.87,6.51,2.72a20.28,20.28,0,0,0-1.19-1.77,10.37,10.37,0,0,0,3.51,2c-.32-.32-.56-.79-.9-1.11,2.32.93,4.87,1.5,7.3,2.2a10.2,10.2,0,0,1,.25-1.83,7.15,7.15,0,0,0,.75,1.42c.26-.44.78-.74,1.06-1.12,0,.28.08.58.07.87a12.15,12.15,0,0,1,1.66-1.13c-.13.06-.15.82-.16,1,1.74-1,2.84-2.8,4-4.39a20,20,0,0,1-.38,3c1.38-1.85,4.06-4,4.17-6.32a12.92,12.92,0,0,0,.36,1.49,8.34,8.34,0,0,0,1.48-4.33c.05.22.17.47.21.69.3-1.46.67-2.93,1-4.4a5.37,5.37,0,0,0,.26,1.83c.53-3.15.7-6.49,1-9.67a14.48,14.48,0,0,1,.09,2.08c.64-2.25,1.95-4.65,2.56-7a10.7,10.7,0,0,0,.16,1.34,6.07,6.07,0,0,0,.44-2.11,8.09,8.09,0,0,0,.17,1.49,8.48,8.48,0,0,0,1.64-6.23,5.14,5.14,0,0,0,.76,2,8.11,8.11,0,0,0-.26-2.6c.19.32.51.57.73.87a6.52,6.52,0,0,0-.41-2.51c.53,1.12,1.49,1.74,1.89,3m-16.55,6.65a10.8,10.8,0,0,1-1.67,1.71,3.35,3.35,0,0,1,1.43-.56c-.75.77-2.28.64-3.16,1.28a7.82,7.82,0,0,1,1.22-.46c-.66.47-1.24,1-1.9,1.49.34-.16.76-.27,1.1-.42-1.12.72-2.45,2-3.8,2.28.24,0,.54,0,.72,0-.36,0-.73.16-1.11.18.44.2.9.39,1.35.57a22.35,22.35,0,0,0-5.81-.9c-2.35,0-3.36,1.07-5.27,2.06.18-.22.3-.6.47-.83-.39.14-.8.11-1.2.22.25-.17.41-.51.62-.68-.75-.29-1.59.05-2.36-.12-.55-.11-1.19-.76-1.68-.78.33,0,.75-.12,1.11-.1a15.83,15.83,0,0,1-1.91-1.27c.31,0,.64-.1.94-.07-1-1.49-2.73-1-3.69-2.64.27.08.63,0,.92.14a7.9,7.9,0,0,1-1.08-1.79c.25,0,.56-.07.8,0-.36-.56-.87-1.08-.76-1.77.45.11.68,0,1.06.38a2.46,2.46,0,0,1,.53-2.15,4.68,4.68,0,0,0-.09.54,20.24,20.24,0,0,1,2.2-1.86c-.26.27-.45.63-.68.9a7.69,7.69,0,0,1,4.26-1.18c-.06.09-.18.15-.23.23a13.73,13.73,0,0,1,1.62-.5,7.06,7.06,0,0,0-.62.5c.48-.35,2-.28,2.67-.43-.22.14-.41.34-.64.48a19.13,19.13,0,0,1,5.51-.37c-.34-.1-.66-.29-1-.38a5,5,0,0,1,1.34,0l-.43-.06a38.11,38.11,0,0,1,5.47.55c-.28-.16-.6-.44-.84-.57.73.13,1.47.35,2.2.52l-.41-.27a4.49,4.49,0,0,1,1.91,1.51c-.13-.27-.23-.57-.38-.83a13,13,0,0,1,.79,1.28c-.08-.24-.12-.5-.2-.74.55,1.53,1.36,4.15-.3,5.39a4.42,4.42,0,0,1,1-.47m-21.1-10.1h0" transform="translate(-23.45)"/><path class="cls-18" d="M132.73,130.85c.61,0,1,0,1.2,0a15.34,15.34,0,0,0,8-3c-.32.23-.75,2.56-1,3-.59,1.29-1.4,2.5-2.06,3.77a18,18,0,0,1,.38-1.77,7.94,7.94,0,0,0-1.23,1.83,7.1,7.1,0,0,0,.36-.88,8.13,8.13,0,0,1-1.35,1.46,10.58,10.58,0,0,1,.38-1.21c-3.06,2.06-7.19,1.86-9.43.28.18.23.3.54.46.78-.61-.37-2.58-1-3-1.56.22.35.3.77.5,1.13-1.27-.73-2.68-3.9-2.72-5.22,0,.61,6.57,1.21,9.38,1.37" transform="translate(-23.45)"/><path class="cls-8" d="M99,344.08s-7.27,21.33-6.77,21,24.62-2.32,24.62-2.32l-.66-22" transform="translate(-23.45)"/><path class="cls-9" d="M95.74,342.6c.49.16,9.09,20.82-6.12,30.08,0,0-24-.66-33.22.16s-30.74,5.79-32.56-4.95,3-23.14,7.93-28.27S47,329.38,60.7,331" transform="translate(-23.45)"/><path class="cls-10" d="M37.72,344.91c2.51-4.83,7.67-9.75,13-13.91-8.72,1-15.29,4.83-19,8.62-5,5.13-9.75,17.52-7.93,28.27.64,3.75,3.68,5.59,7.76,6.35-.76-10.15,3-23.39,6.12-29.33" transform="translate(-23.45)"/><path class="cls-9" d="M217.38,347.23s22.74-1.17,30.09-.67c12.06.83,20.16,4.14,24.13,3.64s9.42-4.3,14.38-4.3,13.22,3.8,18,10.09,6.94,15.53,6.12,21.81-1,11.41-10.58,14.05-28.1-4.3-33.39-5.62-33-1.32-36-1.15c0,0-7.27-4.8-6.45-6.12s-5.78-18.68-5.78-19.17" transform="translate(-23.45)"/><path class="cls-11" d="M106.65,348.71s-.34,16,1.65,17.36,16,4.63,25.45,4,32.89-5.78,43.47-7.1" transform="translate(-23.45)"/><path class="cls-8" d="M48.36,220.66s.62,16.36.78,24.47,2.65,45,4.83,50.18,47.22,10.91,47.38,10.28-8.11-65.45-7.95-66.23.31-22.91.31-22.91" transform="translate(-23.45)"/><path class="cls-12" d="M86.15,274.5s-.5,21.32-.74,29.26,30.24,40.16,49.83,38.42,80.82-11.9,81.57-12.14S227,304.75,227,303.26s-13.88-29-13.88-29" transform="translate(-23.45)"/><path class="cls-8" d="M201.85,348.88l24.39-1.4s-2.34,4.11-1.4,6.82,6.45,7.19,6.07,11.68-4.39,6.82-5.14,9.25-2.61,4.11-6.26,2S195.22,366.45,195,366.07" transform="translate(-23.45)"/><path class="cls-13" d="M146.4,331.77s25.53-11.15,35.7-14.87,22.56-4.71,29.25-7.44,11.65-17.11,4.22-20.58c0,0,16.74-.63,29.14,1.6s20.84,6.28,23.31,11.74c4.38,9.63,9.15,14.33,8.42,24.53-.47,6.68-9.06,20.64-18.23,21.38s-50.58,2.24-61.73,2.73-50.08-19.09-50.08-19.09" transform="translate(-23.45)"/><path class="cls-21" d="M106.59,146.66s-3.88-2.69-6.16-1.32-8,6.88-9.45,7.84-3.65.72-5.68,2.75-2.57,3.29-5.39,3.83-5.62.36-6.52,1.43-1.31,2.52-3.47,2.76-5.68.24-7.47,4.24-8.16,16.94-10,23.26-3.84,19.71-4.09,26.15a2.54,2.54,0,0,0-1.73,2.73c.12,2.23.24,3.22,3.22,1.61s9.3-.87,15.25.5a116.05,116.05,0,0,0,42.14,1.86c20.21-2.85,114.05-2.23,114.05-2.23s-3-25.54-3.84-33.85S211,165.29,207,162.07s-9.54-3.35-11.15-5.95-3.23-3.72-6.45-4.59-7.44-1.11-9.42-3-7.56-6.45-10.66-6.7-13,.13-18-.24" transform="translate(-23.45)"/><path class="cls-8" d="M111.69,123.14s-.41,16.85-1.2,18.32-5.28,4.41-5.08,5.61c1.2,7.49,3.12,11.31,6.75,16.08,5.64,7.39,15.4,11.45,23,11.18A25.53,25.53,0,0,0,154.26,165a33.59,33.59,0,0,0,6.87-15.21c.49-4.12.49-7.66-.1-7.85s-10.33-2.1-11.41-5.73-2.72-16.06-2.72-16.06" transform="translate(-23.45)"/><polygon class="cls-15" points="224.85 252.85 224.85 252.85 224.19 252.85 224.85 252.85"/><path class="cls-16" d="M234.08,288.69a4,4,0,0,1-4,4H88.63a4,4,0,0,1-4-4V204.28a4,4,0,0,1,4-4H230.11a4,4,0,0,1,4,4Z" transform="translate(-23.45)"/><path class="cls-17" d="M67.56,280.7c-5,.14-12,.12-17.85,2.48s-7.44,4.71-8.43,8.43-.5,5-4,8.68-5.08,11.4-2.73,18,11.78,17.23,21.94,23.06,43.27,15,54.55,17.6,45.74,6.57,53.92,10.54,37.44,10.41,39.92,9.91-2-10.91.24-16.11,7.94-17.6,5.46-21.08-5.7-1.48-10.66-1.48-6.44-2.24-8.3-3.23c-2.69-1.42-4.27-2.64-10.06-2.74-2.49,0-9.16,2.25-12.63-.23s-34-15.87-43.14-19.09S93.09,304,90.61,300.29s-5-20.09-23-19.59" transform="translate(-23.45)"/><path class="cls-10" d="M310.11,377.8c.82-6.28-1.32-15.53-6.12-21.81s-13.06-10.09-18-10.09a12,12,0,0,0-2.05.2c5.52,4.53,15.87,14,16.59,21.45.63,6.55-1.7,16.38-6.95,24.88a20.63,20.63,0,0,0,6-.58c9.59-2.64,9.75-7.77,10.58-14.05" transform="translate(-23.45)"/><path class="cls-8" d="M101.67,73.1s2.14,26.42,2.13,26.21-1.72-4.3-3.86-3.81-2.56,5.07-1.69,7.64,5.87,12.74,6.4,14.4,6.66,13,7.75,16.09,9.85,15.06,15.21,14.85,19-2.48,20.68-5.87,3.76-12.1,5.68-15.5,4-13.06,4-13.06,2.83-2.06,3.3-3.67,2.29-3.17,2.87-5.16,2.43-5.06,2.08-7.28S165,92.88,163.4,92.7s-3,.17-3.9,3c0,0-.76-6.65-1.13-9.85s-2.39-17.62-4.79-20S132.35,61.78,128,62.42s-26.08,3.87-26.34,10.68" transform="translate(-23.45)"/><path class="cls-18" d="M98.14,71.8c0,.17.89,9,1.21,10,1,3.42-.39,6.85.92,10.11.09-.37.26-.75.31-1.12,0,.58,0,1.17,0,1.76,0-.35.08-.71.1-1.06-.45,3.75,1.5,9.48,3.51,12.75-.12-2.7.86-5.34,1-8-.13.17-.29.35-.41.5,0-1.46.75-2.84,1-4.26-.12,0-.2.17-.33.22.19-.73.45-1.47.66-2.19a6.16,6.16,0,0,0-1.09,1.08,15,15,0,0,0,.75-1.65c-.1.21-.19.43-.3.64.54-2,1.33-4,1.69-6.1-.16.23-.46.5-.62.75.3-1.06.42-2.17.62-3.25a3,3,0,0,0-.25.37c-.13-1.16.5-2.33.64-3.45-.2.32-.44.6-.61.94a13.56,13.56,0,0,0,1.14-3.43c-.13.16-.21.32-.32.47a7.26,7.26,0,0,1,.61-1.37s-.41.53-.56.74a7.39,7.39,0,0,1,6.25-3.22,6.3,6.3,0,0,0-.75-.18c1.85-.08,3.7-.35,5.53-.51a6.09,6.09,0,0,0-.72-.34,17.62,17.62,0,0,1,3.69-.14c-.27-.11-.52-.26-.8-.35,0,0,0,0,0,0,.66.1,6.16.71,6.18,1.25,0-.35.18-.72.13-1.07a2,2,0,0,1,.49.47c.06,0,0-.42.14-.43a5.16,5.16,0,0,0,.31.73,4.72,4.72,0,0,1,1.8-.91c-.08.18-.14.51-.22.69,1-.26,2-.73,3-1-.1.16-.23.33-.33.47a10.1,10.1,0,0,0,2.4-1.18c-.05,0-.38.36-.52.47.21-.07.57-.21.81-.26-.21.18-.4.41-.6.59.89-.13,1.7-.54,2.58-.73a15.63,15.63,0,0,1-1.65,1.26c1.54-1,5.93-1.22,7.67-1a6.65,6.65,0,0,0-.58.33,13.93,13.93,0,0,1,6.07,1c-.24,0-.47.09-.7.12,1.57.66,3.54.76,4.38,2.39-.32-.1-.7-.07-1-.14.27.25.47.64.74.88-.2-.13-.41-.22-.59-.32a19.46,19.46,0,0,0,1.14,1.66c-.18-.06-.29-.15-.47-.21-.16,1,.25,3.81,1.14,4.51-.21-.17-.54-.28-.77-.43a24.76,24.76,0,0,0,1.54,3.78c-.13-.14-.49-.37-.66-.51a26,26,0,0,0,1.92,4,8.33,8.33,0,0,0-.67-.54,5.65,5.65,0,0,0,.55,1.41c-.1-.1-.22-.24-.3-.34.67.78.74,3.33.91,4.33.48,2.75,1.68,5.42,2,8.17a24.56,24.56,0,0,1-1,9.93,2.59,2.59,0,0,0,.83-.06,7.3,7.3,0,0,0,.29-1,5.26,5.26,0,0,0,0,.89,6.17,6.17,0,0,0,1.71-.12,13.82,13.82,0,0,1,0-1.93c0,.5-.11,1-.18,1.5.53-3.82.64-7.31.88-11.12.08.38.3.89.37,1.32A51.87,51.87,0,0,0,161,90.34c-.19-2.54-.41-6.59-.5-9.13,0-2.95-.4-11.59-1.36-14.35s-17.56-5-23.91-6.06-38,6.26-37.1,11" transform="translate(-23.45)"/><path class="cls-19" d="M109.74,52a43.13,43.13,0,0,1,5.68-4.09c6.46-3.85,12.76-5.39,14.7-5.39,3.5,0,7.43,1.63,9.86,2.65s12.08,5.68,14.11,8.6-8.84,3.93-9,3.77-34.33-3.23-34.34-3.36" transform="translate(-23.45)"/><path class="cls-19" d="M159.73,78s.88,8.25,1,7.91,2.12-6.09,2.27-7.71" transform="translate(-23.45)"/><polyline class="cls-19" points="73.63 77.44 75.96 83.81 77.71 81.37 77.31 77.79"/><path class="cls-22" d="M129.68,49.62a126.6,126.6,0,0,1,15.72.93c4.57.7,13.22,2.72,16.9,6s4.82,7.72,4.27,12.51-3.29,10.51-3.72,10.79a13.52,13.52,0,0,1-2.85.54s-4.08-6.25-8.17-9-12.62-4.29-19.63-3.63-15.79,1.71-21,4.2-9.7,5.69-10.24,8.19l-2.65.49s-2.52-4.37-3.72-7.09S91.92,66,92.91,62.21s5.46-8.13,10.67-9.74c7.1-2.2,17.42-2.84,26.1-2.85" transform="translate(-23.45)"/><path class="cls-18" d="M124.53,121h0m36.59,3.9c-.19-1.92-.63-4.11-2.21-5.51.37.33,1.08,1,1.61,1.42a9.74,9.74,0,0,0-1-3.15c.19.28.45.51.65.78A36.15,36.15,0,0,0,159,113.4c.22.37.69.92,1,1.35a12.72,12.72,0,0,0-.72-3.27,9.85,9.85,0,0,0,.58,1.44c-.7-1.52-.16-3.27-1-4.9-.45.53-.37,1-.62,1.59-.52,1.09-1.51,2.14-2.11,3.24.2-.24.44-.44.65-.66a10.8,10.8,0,0,0-.76,1.57c.18-.15.47-.25.64-.38a22,22,0,0,1-.76,2.34l.37-.19c-.26.59-.57,1.18-.84,1.75.17-.15.44-.28.62-.42a15.11,15.11,0,0,1-1,1.87c.23-.17.54-.3.76-.46-.4.48-.76,1-1.14,1.51.19-.15.46-.27.65-.41-.1.68-.53,1.31-1.28.95a4.52,4.52,0,0,1,.86.89,4.23,4.23,0,0,1-2-.44,2.81,2.81,0,0,1,.7,1.18,3.22,3.22,0,0,1-1.28-.67,3.57,3.57,0,0,1,.51,1.23c-.25-.17-.67-.21-.91-.35,0,.45,0,.9,0,1.35-.24-.27-.66-.49-.89-.78-.41,3-1.9,6-1.65,9.1-.18-2.2-.76-5-2.52-6.63.13.11.26.25.38.37-.26-.24-.49-.56-.75-.81.23.1.62.14.91.28-.79-2.12-3.92-3-6-3.6.37,0,.78,0,1.15,0-1.53-.89-3.89-1-5.66-1,.38,0,.76-.16,1.14-.21a8.46,8.46,0,0,0-3.61-.13,14.75,14.75,0,0,1-2.62.9c-1.33.1-1.93-.78-3.1-.89-1.69-.17-2.7.88-4.26,1l.37,0a6,6,0,0,1-1.42.43c.36,0,.76,0,1.09,0a43,43,0,0,0-5.17,1.44,8.84,8.84,0,0,1,.95-.2c-2.09.89-3.88,1.47-5.23,3.33.17-.14.36-.25.53-.37-.2.41-.43.81-.67,1.2a3.25,3.25,0,0,1,.92-.79,39.49,39.49,0,0,0-.41,6c-1-2.23-1.41-5.59-3.52-7.11a2.69,2.69,0,0,0,.67.31,2.37,2.37,0,0,0-.82-.75c.26,0,.56,0,.83.08a19.65,19.65,0,0,1-2.81-2c.23.08.52.08.74.14a26.09,26.09,0,0,0-2.15-1.65,3.08,3.08,0,0,1,.58-.17,9.72,9.72,0,0,0-2.42-1.61c.36.1,1,0,1.32.16-.51-.62-1.16-1.15-1.63-1.78.25.13.72.23,1,.4-.24-1.36-1.47-2.44-1.52-3.88.23.16.63.27.86.43a20.48,20.48,0,0,0-1-2.69c.17.24.41.48.59.73-.77-4.36-2.2-8.34-2.41-12.84.08,1.54-.87,3.52-1,5.14-.15,1.8.37,4.45-.13,6.12.14-.47.4-.94.54-1.41-.43,4.61-.14,9,1.85,13.26a6,6,0,0,0,.27-1.81c0,3.7.81,8.14,3.29,11.13,0-.63.08-1.31.16-1.91.27,1.94.87,3.8,1.21,5.71.1-.86.26-1.71.36-2.58h0l.15,2.08c0-.59.58-1.48.69-2.06.7,4.09.59,8.07,2.34,12-.07-.53,0-1.07-.12-1.6a29.25,29.25,0,0,0,2.53,5.07,11.28,11.28,0,0,0-.26-1.26c.17.44.38.86.57,1.28-.1-.3-.19-.65-.31-1,1.23,3.3,3.53,5,6.65,6.62a5.73,5.73,0,0,0-1.16-1.54c.37.32.88.63,1.23.92-.11-.15-.21-.33-.32-.5,1.38,1.85,4.45,1.87,6.51,2.72a20.28,20.28,0,0,0-1.19-1.77,10.37,10.37,0,0,0,3.51,2c-.32-.32-.56-.79-.9-1.11,2.32.93,4.87,1.5,7.3,2.2a10.2,10.2,0,0,1,.25-1.83,7.15,7.15,0,0,0,.75,1.42c.26-.44.78-.74,1.06-1.12,0,.28.08.58.07.87a12.15,12.15,0,0,1,1.66-1.13c-.13.06-.15.82-.16,1,1.74-1,2.84-2.8,4-4.39a20,20,0,0,1-.38,3c1.38-1.85,4.06-4,4.17-6.32a12.92,12.92,0,0,0,.36,1.49,8.34,8.34,0,0,0,1.48-4.33c.05.22.17.47.21.69.3-1.46.67-2.93,1-4.4a5.37,5.37,0,0,0,.26,1.83c.53-3.15.7-6.49,1-9.67a14.48,14.48,0,0,1,.09,2.08c.64-2.25,1.95-4.65,2.56-7a10.7,10.7,0,0,0,.16,1.34,6.07,6.07,0,0,0,.44-2.11,8.09,8.09,0,0,0,.17,1.49,8.48,8.48,0,0,0,1.64-6.23,5.14,5.14,0,0,0,.76,2,8.11,8.11,0,0,0-.26-2.6c.19.32.51.57.73.87a6.52,6.52,0,0,0-.41-2.51c.53,1.12,1.49,1.74,1.89,3m-16.55,6.65a10.8,10.8,0,0,1-1.67,1.71,3.35,3.35,0,0,1,1.43-.56c-.75.77-2.28.64-3.16,1.28a7.82,7.82,0,0,1,1.22-.46c-.66.47-1.24,1-1.9,1.49.34-.16.76-.27,1.1-.42-1.12.72-2.45,2-3.8,2.28.24,0,.54,0,.72,0-.36,0-.73.16-1.11.18.44.2.9.39,1.35.57a22.35,22.35,0,0,0-5.81-.9c-2.35,0-3.36,1.07-5.27,2.06.18-.22.3-.6.47-.83-.39.14-.8.11-1.2.22.25-.17.41-.51.62-.68-.75-.29-1.59.05-2.36-.12-.55-.11-1.19-.76-1.68-.78.33,0,.75-.12,1.11-.1a15.83,15.83,0,0,1-1.91-1.27c.31,0,.64-.1.94-.07-1-1.49-2.73-1-3.69-2.64.27.08.63,0,.92.14a7.9,7.9,0,0,1-1.08-1.79c.25,0,.56-.07.8,0-.36-.56-.87-1.08-.76-1.77.45.11.68,0,1.06.38a2.46,2.46,0,0,1,.53-2.15,4.68,4.68,0,0,0-.09.54,20.24,20.24,0,0,1,2.2-1.86c-.26.27-.45.63-.68.9a7.69,7.69,0,0,1,4.26-1.18c-.06.09-.18.15-.23.23a13.73,13.73,0,0,1,1.62-.5,7.06,7.06,0,0,0-.62.5c.48-.35,2-.28,2.67-.43-.22.14-.41.34-.64.48a19.13,19.13,0,0,1,5.51-.37c-.34-.1-.66-.29-1-.38a5,5,0,0,1,1.34,0l-.43-.06a38.11,38.11,0,0,1,5.47.55c-.28-.16-.6-.44-.84-.57.73.13,1.47.35,2.2.52l-.41-.27a4.49,4.49,0,0,1,1.91,1.51c-.13-.27-.23-.57-.38-.83a13,13,0,0,1,.79,1.28c-.08-.24-.12-.5-.2-.74.55,1.53,1.36,4.15-.3,5.39a4.42,4.42,0,0,1,1-.47m-21.1-10.1h0" transform="translate(-23.45)"/><path class="cls-18" d="M132.73,130.85c.61,0,1,0,1.2,0a15.34,15.34,0,0,0,8-3c-.32.23-.75,2.56-1,3-.59,1.29-1.4,2.5-2.06,3.77a18,18,0,0,1,.38-1.77,7.94,7.94,0,0,0-1.23,1.83,7.1,7.1,0,0,0,.36-.88,8.13,8.13,0,0,1-1.35,1.46,10.58,10.58,0,0,1,.38-1.21c-3.06,2.06-7.19,1.86-9.43.28.18.23.3.54.46.78-.61-.37-2.58-1-3-1.56.22.35.3.77.5,1.13-1.27-.73-2.68-3.9-2.72-5.22,0,.61,6.57,1.21,9.38,1.37" transform="translate(-23.45)"/></g></g></svg>